<svg width="405" height="410" viewBox="0 0 405 410" fill="none" xmlns="http://www.w3.org/2000/svg">
<path d="M202.36 0C90.5997 0 0 91.7815 0 205C0 318.219 90.5997 410 202.36 410C314.118 410 404.718 318.218 404.718 205C404.718 91.7824 314.119 0 202.36 0ZM308.522 97.4509C361.926 151.551 365.64 234.24 325.394 292.232L116.25 80.3601C173.534 39.5617 255.149 43.3815 308.522 97.4509ZM96.1957 312.549C42.7924 258.449 39.0782 175.761 79.324 117.768L288.468 329.64C231.184 370.439 149.569 366.62 96.1957 312.549Z" fill="#C91A1A"/>
<path fill-rule="evenodd" clip-rule="evenodd" d="M82.0584 124.624H81.0464C74.6628 124.624 69.3195 129.906 69.4614 136.39C69.556 142.633 74.6155 147.676 80.81 147.676H104.756L82.0584 124.624ZM125.128 168.365L124.55 169.43C118.403 167.557 111.829 166.693 105.02 166.933C73.1969 168.085 47.5206 194.547 46.764 226.915C46.0074 261.542 73.386 289.828 107.29 289.828C135.472 289.828 159.163 270.234 165.925 243.725H199.327L125.128 168.365ZM237.304 196.234C240.628 190.737 244.779 185.811 249.574 181.629L243.663 171.639C237.881 176.388 233.002 181.871 229.062 187.863L185.71 143.833H227.208L218.129 128.465H186.731C182.569 128.465 179.165 125.008 179.165 120.781V113.098C179.165 108.871 182.569 105.414 186.731 105.414H224.56C228.532 105.414 232.22 107.527 234.301 110.984L245.082 129.234L262.814 109.208C264.941 106.806 268.016 105.414 271.231 105.414H292.652C298.941 105.414 304 110.552 304 116.94V132.307C304 138.695 298.941 143.833 292.652 143.833H253.688L269.245 170.199C275.534 167.99 282.249 166.837 289.294 166.886C322.205 167.126 349.111 194.403 349.442 227.828C349.627 250.22 338.021 269.883 320.553 280.783L303.736 263.704C316.605 258.09 325.855 245.374 326.651 230.469C327.785 208.331 310.431 189.937 288.869 189.985C286.315 189.985 283.809 190.225 281.35 190.753L304.331 229.605C306.459 233.255 305.324 238.01 301.731 240.171L295.252 244.109C291.659 246.269 286.978 245.117 284.849 241.467L261.49 201.895C258.392 205.18 255.867 209.024 254.075 213.267L237.304 196.234ZM69.4614 228.356C69.4614 249.535 86.437 266.777 107.29 266.777C122.753 266.777 136.087 257.267 141.951 243.725H103.507C94.9013 243.725 89.4161 234.312 93.5773 226.628L113.201 190.418C111.262 190.081 109.277 189.937 107.29 189.937C86.437 189.937 69.4614 207.177 69.4614 228.356Z" fill="#0D0101"/>
</svg>
